<svg class="_11blhfe6" fill="none" viewBox="0 0 60 60" xmlns="http://www.w3.org/2000/svg" aria-hidden="true"><path stroke="currentColor" stroke-linecap="round" stroke-linejoin="round" stroke-width="1.5" d="M48.75 9.38h-37.5c-1.04 0-1.88.83-1.88 1.87v37.5c0 1.04.84 1.88 1.88 1.88h37.5c1.04 0 1.88-.84 1.88-1.88v-37.5c0-1.04-.84-1.88-1.88-1.88Z"></path><path stroke="currentColor" stroke-linecap="round" stroke-linejoin="round" stroke-width="1.5" d="m50.63 37.5-9.92-9.91a1.87 1.87 0 0 0-2.67 0L27.59 38.04a1.88 1.88 0 0 1-2.68 0L20.1 33.2a1.87 1.87 0 0 0-2.68 0l-8.04 8.04"></path><path fill="currentColor" d="M23.44 23.9a2.34 2.34 0 1 0 0-4.68 2.34 2.34 0 0 0 0 4.69Z"></path></svg>